<svg width="16" height="13" viewBox="0 0 16 13" fill="none" xmlns="http://www.w3.org/2000/svg">
<path d="M12.6667 11.7291H3.33336V10.731H12.6667V11.7291ZM11.3334 5.74047C10.3867 5.74047 9.50669 6.12474 9.03336 6.73858H8.66669V4.24331H10.6667V3.24521H8.66669V1.74805H7.33336V3.24521H5.33336V4.24331H7.33336V6.73858H6.96669C6.23336 5.78539 4.60002 5.45601 3.33336 6.00996C2.71928 6.27289 2.26932 6.70719 2.08192 7.21784C1.89451 7.72849 1.98492 8.27391 2.33336 8.73479C2.82669 9.35362 3.71336 9.7329 4.66669 9.7329H11.3334C12.0406 9.7329 12.7189 9.52258 13.219 9.14822C13.7191 8.77386 14 8.26611 14 7.73668C14 7.20726 13.7191 6.69951 13.219 6.32515C12.7189 5.95079 12.0406 5.74047 11.3334 5.74047Z" fill="white"/>
</svg>
