<svg width="18" height="16" viewBox="0 0 18 16" fill="none" xmlns="http://www.w3.org/2000/svg">
<g clip-path="url(#clip0)">
<path fill-rule="evenodd" clip-rule="evenodd" d="M12.469 1H3.582V2.031H0.492004V6.867C0.492004 8.736 2.578 10.274 4.625 10.434C5.297 11.154 6.479 11.677 7.531 11.9V13.164C6.525 13.473 4.728 14.199 4.625 14.99H11.529C11.425 14.199 9.445 13.472 8.437 13.164V11.9C9.493 11.677 10.728 11.154 11.401 10.434C13.447 10.274 15.441 8.736 15.441 6.867V2.031H12.469V1ZM1.441 2.947H3.51V7.113C3.51 7.935 3.722 8.717 4.095 9.421C2.547 8.928 1.441 7.658 1.441 6.172V2.947ZM9.545 8.028L8.001 7.177L6.455 8.028L6.75 6.228L5.5 4.954L7.227 4.691L8.001 3.055L8.773 4.691L10.5 4.954L9.25 6.228L9.545 8.028ZM11.84 9.554C12.215 8.818 12.43 8.004 12.43 7.143V2.974H14.504V6.16C14.504 7.713 13.393 9.039 11.84 9.554Z" fill="white"/>
</g>
<defs>
<clipPath id="clip0">
<rect width="17" height="16" fill="white" transform="translate(0.5)"/>
</clipPath>
</defs>
</svg>
