<svg width="15" height="14" viewBox="0 0 15 14" fill="none" xmlns="http://www.w3.org/2000/svg">
<path d="M11.6487 8.73258C11.8659 9.01675 11.8659 9.40038 11.6487 9.68408C10.9644 10.5774 9.32262 12.4167 7.40587 12.4167C5.48912 12.4167 3.84737 10.5774 3.16308 9.68408C3.05738 9.54802 3 9.38063 3 9.20833C3 9.03604 3.05738 8.86865 3.16308 8.73258C3.84737 7.83929 5.48912 6 7.40587 6C9.32262 6 10.9644 7.83929 11.6487 8.73258V8.73258Z" stroke="white" stroke-width="0.5" stroke-linecap="round" stroke-linejoin="round"/>
<path d="M7.40588 10.5835C8.16528 10.5835 8.78088 9.96789 8.78088 9.2085C8.78088 8.4491 8.16528 7.8335 7.40588 7.8335C6.64649 7.8335 6.03088 8.4491 6.03088 9.2085C6.03088 9.96789 6.64649 10.5835 7.40588 10.5835Z" stroke="white" stroke-width="0.5" stroke-linecap="round" stroke-linejoin="round"/>
</svg>
