<svg width="16" height="17" viewBox="0 0 16 17" fill="none" xmlns="http://www.w3.org/2000/svg">
<path d="M3.75501 15.9377C3.51185 15.9381 3.26973 15.9042 3.03501 15.8367C2.33046 15.6233 1.73272 15.1249 1.37004 14.4485C1.00735 13.7722 0.908615 12.9717 1.09501 12.2189L2.26001 7.52268C2.35193 7.14453 2.51378 6.78961 2.73611 6.47859C2.95845 6.16757 3.23682 5.90668 3.55501 5.71112C3.86582 5.51984 4.20927 5.396 4.56545 5.34675C4.92163 5.29751 5.28347 5.32385 5.63001 5.42424C5.99749 5.53172 6.34003 5.71891 6.63606 5.97401C6.93208 6.2291 7.17517 6.54658 7.35001 6.90643H8.65C8.823 6.54402 9.06537 6.22402 9.36157 5.96695C9.65776 5.70988 10.0012 5.52141 10.37 5.41362C10.7165 5.31322 11.0784 5.28688 11.4346 5.33613C11.7907 5.38537 12.1342 5.50922 12.445 5.70049C12.763 5.89629 13.0413 6.15725 13.2636 6.46823C13.4859 6.77922 13.6478 7.13402 13.74 7.51206L14.905 12.2189C15.0942 12.9739 14.9962 13.7777 14.6323 14.4566C14.2684 15.1355 13.6677 15.6351 12.96 15.8474C12.6135 15.9478 12.2516 15.9741 11.8954 15.9249C11.5393 15.8756 11.1958 15.7518 10.885 15.5605C10.5668 15.3649 10.2884 15.104 10.0661 14.793C9.84378 14.482 9.68193 14.1271 9.59 13.7489L9.5 13.2814H6.50001L6.38501 13.7383C6.29308 14.1165 6.13123 14.4714 5.9089 14.7824C5.68656 15.0934 5.40819 15.3543 5.09001 15.5499C4.68374 15.7988 4.22397 15.9324 3.75501 15.9377ZM4.91501 6.37518C4.61327 6.37627 4.31697 6.46047 4.05501 6.61956C3.85135 6.74584 3.67319 6.91363 3.53076 7.11329C3.38832 7.31295 3.28441 7.54054 3.22501 7.78299L2.06001 12.4792C1.9381 12.9631 1.9997 13.4784 2.23156 13.9145C2.46343 14.3506 2.84706 14.6726 3.30001 14.8114C3.51876 14.8748 3.74717 14.8915 3.97203 14.8605C4.19689 14.8295 4.41373 14.7514 4.61001 14.6308C4.81383 14.5048 4.99212 14.337 5.13459 14.1373C5.27705 13.9376 5.38085 13.7099 5.44001 13.4674L5.75001 12.2189H10.25L10.555 13.4674C10.676 13.9565 10.9744 14.3749 11.385 14.6308C11.5822 14.7513 11.7999 14.8293 12.0256 14.8603C12.2512 14.8913 12.4804 14.8747 12.7 14.8114C13.1535 14.6739 13.5376 14.3518 13.7688 13.9152C14.0001 13.4785 14.0598 12.9624 13.935 12.4792L12.77 7.78299C12.7125 7.5404 12.6099 7.3125 12.4682 7.11269C12.3265 6.91288 12.1486 6.74521 11.945 6.61956C11.7478 6.49905 11.5301 6.42107 11.3044 6.39007C11.0788 6.35908 10.8496 6.37568 10.63 6.43893C10.3584 6.52118 10.1092 6.6711 9.90314 6.87622C9.69705 7.08134 9.53998 7.33574 9.445 7.61831L9.325 7.96893H6.67501L6.55501 7.61831C6.45918 7.33537 6.30124 7.08078 6.09428 6.87567C5.88732 6.67056 5.63732 6.52084 5.36501 6.43893C5.21827 6.39689 5.06698 6.37546 4.91501 6.37518Z" fill="#32126D"/>
<path d="M5 10.625C4.80222 10.625 4.60888 10.5627 4.44443 10.4459C4.27998 10.3292 4.15181 10.1632 4.07612 9.9691C4.00043 9.77496 3.98063 9.56132 4.01922 9.35522C4.0578 9.14911 4.15304 8.95979 4.29289 8.8112C4.43275 8.66261 4.61093 8.56141 4.80491 8.52042C4.99889 8.47942 5.19996 8.50046 5.38268 8.58088C5.56541 8.6613 5.72159 8.79748 5.83147 8.97221C5.94135 9.14693 6 9.35236 6 9.5625C6 9.84429 5.89464 10.1145 5.70711 10.3138C5.51957 10.5131 5.26522 10.625 5 10.625Z" fill="#32126D"/>
<path d="M11 9.03125C11.2761 9.03125 11.5 8.7934 11.5 8.5C11.5 8.2066 11.2761 7.96875 11 7.96875C10.7239 7.96875 10.5 8.2066 10.5 8.5C10.5 8.7934 10.7239 9.03125 11 9.03125Z" fill="#32126D"/>
<path d="M11 11.1562C11.2761 11.1562 11.5 10.9184 11.5 10.625C11.5 10.3316 11.2761 10.0938 11 10.0938C10.7239 10.0938 10.5 10.3316 10.5 10.625C10.5 10.9184 10.7239 11.1562 11 11.1562Z" fill="#32126D"/>
<path d="M10 10.0938C10.2761 10.0938 10.5 9.8559 10.5 9.5625C10.5 9.2691 10.2761 9.03125 10 9.03125C9.72386 9.03125 9.5 9.2691 9.5 9.5625C9.5 9.8559 9.72386 10.0938 10 10.0938Z" fill="#32126D"/>
<path d="M12 10.0938C12.2761 10.0938 12.5 9.8559 12.5 9.5625C12.5 9.2691 12.2761 9.03125 12 9.03125C11.7239 9.03125 11.5 9.2691 11.5 9.5625C11.5 9.8559 11.7239 10.0938 12 10.0938Z" fill="#32126D"/>
<path d="M6.875 4.78116L6.125 4.0746C6.3596 3.79196 6.64813 3.56559 6.97141 3.41054C7.29468 3.25548 7.64531 3.17529 8 3.17529C8.35469 3.17529 8.70532 3.25548 9.02859 3.41054C9.35187 3.56559 9.6404 3.79196 9.875 4.0746L9.125 4.78116C8.98424 4.61158 8.81112 4.47576 8.61716 4.38272C8.42319 4.28969 8.21281 4.24158 8 4.24158C7.78719 4.24158 7.57681 4.28969 7.38284 4.38272C7.18888 4.47576 7.01576 4.61158 6.875 4.78116Z" fill="#32126D"/>
<path d="M10.625 3.38397C10.2966 2.98827 9.89262 2.67135 9.44003 2.45428C8.98744 2.2372 8.49656 2.12494 8 2.12494C7.50344 2.12494 7.01256 2.2372 6.55997 2.45428C6.10738 2.67135 5.70345 2.98827 5.375 3.38397L4.625 2.68272C5.04729 2.17396 5.56663 1.7665 6.14853 1.4874C6.73043 1.20831 7.36156 1.06396 8 1.06396C8.63844 1.06396 9.26957 1.20831 9.85147 1.4874C10.4334 1.7665 10.9527 2.17396 11.375 2.68272L10.625 3.38397Z" fill="#32126D"/>
</svg>
