<svg width="20" height="41" viewBox="0 0 20 41" fill="none" xmlns="http://www.w3.org/2000/svg">
<path d="M16.436 0.660126C17.0608 0.658825 17.6663 0.890923 18.1474 1.31612C18.4182 1.55556 18.642 1.84962 18.806 2.18147C18.9701 2.51331 19.0712 2.8764 19.1035 3.24997C19.1357 3.62354 19.0986 4.00023 18.9942 4.35847C18.8898 4.71672 18.7202 5.04947 18.495 5.33768L3.73034 20.611L18.0672 35.9414C18.2893 36.2332 18.4552 36.5688 18.5553 36.9292C18.6554 37.2895 18.6877 37.6674 18.6504 38.0411C18.6131 38.4148 18.507 38.777 18.3381 39.1068C18.1691 39.4366 17.9408 39.7276 17.6661 39.963C17.3894 40.2226 17.0654 40.4185 16.7144 40.5382C16.3634 40.658 15.993 40.6991 15.6264 40.6589C15.2598 40.6187 14.905 40.4982 14.5841 40.3048C14.2633 40.1114 13.9834 39.8494 13.762 39.5351L1.89089 22.3691C1.49759 21.8587 0.846518 21.2717 0.846518 20.611C0.846518 19.9504 1.70197 19.1734 2.09527 18.6631L14.2166 1.68691C14.4848 1.34175 14.8256 1.0689 15.2112 0.890499C15.5968 0.712097 16.0165 0.633171 16.436 0.660126Z" fill="white"/>
</svg>
