<svg width="17" height="17" viewBox="0 0 17 17" fill="none" xmlns="http://www.w3.org/2000/svg">
<path fill-rule="evenodd" clip-rule="evenodd" d="M15.1666 4.24996C15.1666 3.8415 15.0834 3.43787 14.9228 3.06676C14.7623 2.69564 14.528 2.36581 14.2363 2.09986C13.9445 1.83391 13.602 1.63813 13.2324 1.52595C12.8627 1.41377 12.4746 1.38783 12.0946 1.44991L7.42798 2.21279C6.79833 2.31567 6.22415 2.65466 5.80935 3.1684C5.39456 3.68213 5.16657 4.33667 5.16665 5.01354V11.2207C4.70986 10.9904 4.19506 10.9241 3.69971 11.0316C3.20437 11.1391 2.75528 11.4146 2.42005 11.8167C2.08481 12.2188 1.88156 12.7257 1.84088 13.2611C1.8002 13.7966 1.9243 14.3315 2.19449 14.7856C2.46469 15.2396 2.86636 15.5881 3.33907 15.7786C3.81177 15.9691 4.32992 15.9914 4.81555 15.842C5.30118 15.6926 5.728 15.3797 6.03179 14.9503C6.33557 14.5209 6.49988 13.9983 6.49998 13.4611V5.01354C6.49978 4.67498 6.61371 4.34754 6.82112 4.09053C7.02853 3.83351 7.31571 3.66392 7.63065 3.61246L12.2973 2.84958C12.4874 2.81852 12.6815 2.83152 12.8664 2.88767C13.0513 2.94382 13.2226 3.04181 13.3685 3.1749C13.5144 3.30799 13.6315 3.47304 13.7117 3.65873C13.792 3.84441 13.8334 4.04634 13.8333 4.25066V9.09566C13.3765 8.86545 12.8617 8.7991 12.3664 8.90659C11.871 9.01409 11.422 9.28962 11.0867 9.69171C10.7515 10.0938 10.5482 10.6007 10.5075 11.1361C10.4669 11.6716 10.591 12.2065 10.8612 12.6606C11.1314 13.1146 11.533 13.4631 12.0057 13.6536C12.4784 13.8441 12.9966 13.8664 13.4822 13.717C13.9678 13.5676 14.3947 13.2547 14.6985 12.8253C15.0022 12.3959 15.1665 11.8733 15.1666 11.3361V4.25066V4.24996ZM13.8333 11.3361C13.8333 11.0543 13.728 10.7841 13.5404 10.5848C13.3529 10.3856 13.0985 10.2736 12.8333 10.2736C12.5681 10.2736 12.3137 10.3856 12.1262 10.5848C11.9387 10.7841 11.8333 11.0543 11.8333 11.3361C11.8333 11.6179 11.9387 11.8882 12.1262 12.0874C12.3137 12.2867 12.5681 12.3986 12.8333 12.3986C13.0985 12.3986 13.3529 12.2867 13.5404 12.0874C13.728 11.8882 13.8333 11.6179 13.8333 11.3361ZM5.16665 13.4611C5.16665 13.3216 5.14078 13.1834 5.09053 13.0545C5.04027 12.9256 4.96661 12.8085 4.87376 12.7098C4.7809 12.6112 4.67066 12.5329 4.54933 12.4795C4.42801 12.4261 4.29797 12.3986 4.16665 12.3986C4.03533 12.3986 3.90529 12.4261 3.78396 12.4795C3.66264 12.5329 3.5524 12.6112 3.45954 12.7098C3.36668 12.8085 3.29302 12.9256 3.24277 13.0545C3.19251 13.1834 3.16665 13.3216 3.16665 13.4611C3.16665 13.7429 3.27201 14.0132 3.45954 14.2124C3.64708 14.4117 3.90143 14.5236 4.16665 14.5236C4.43186 14.5236 4.68622 14.4117 4.87376 14.2124C5.06129 14.0132 5.16665 13.7429 5.16665 13.4611Z" fill="white"/>
</svg>
