<svg width="19" height="41" viewBox="0 0 19 41" fill="none" xmlns="http://www.w3.org/2000/svg">
<path d="M2.74037 40.5884C2.11558 40.5897 1.51008 40.3576 1.029 39.9324C0.75823 39.693 0.53441 39.3989 0.370354 39.0671C0.206298 38.7352 0.10523 38.3721 0.072939 37.9986C0.040648 37.625 0.0777687 37.2483 0.182174 36.8901C0.28658 36.5318 0.456217 36.1991 0.681374 35.9109L15.4461 20.6375L1.10922 5.30713C0.887099 5.01539 0.721225 4.6797 0.621132 4.31936C0.521039 3.95901 0.4887 3.58113 0.525974 3.20741C0.563248 2.8337 0.669397 2.47152 0.838325 2.14171C1.00725 1.8119 1.23563 1.52094 1.51032 1.28557C1.78699 1.02592 2.11099 0.830071 2.46199 0.710311C2.81298 0.590552 3.1834 0.54947 3.54999 0.589642C3.91658 0.629815 4.27143 0.750375 4.59226 0.943757C4.9131 1.13714 5.19299 1.39917 5.41438 1.7134L17.2855 18.8795C17.6788 19.3898 18.3299 19.9769 18.3299 20.6375C18.3299 21.2981 17.4744 22.0751 17.0811 22.5855L4.9598 39.5616C4.69155 39.9068 4.35079 40.1796 3.96517 40.358C3.57955 40.5364 3.15994 40.6154 2.74037 40.5884Z" fill="white"/>
</svg>
